<svg version="1.1" id="Layer_1" xmlns="http://www.w3.org/2000/svg" xmlns:xlink="http://www.w3.org/1999/xlink" x="0px" y="0px"
	 width="100%" viewBox="0 0 1000 730" enable-background="new 0 0 1000 730" xml:space="preserve">
<path fill="#010101" opacity="1.000000" stroke="none" 
	d="
M1.000000,241.000000 
	C1.000000,162.011322 1.026464,83.522606 0.909061,5.034105 
	C0.904052,1.685500 1.471583,0.900776 4.964908,0.901890 
	C335.583832,1.007294 666.202820,1.008935 996.821716,0.889467 
	C1000.623352,0.888093 1001.081787,1.908161 1001.080566,5.320591 
	C1000.992004,245.785873 1000.990967,486.251190 1001.088928,726.716431 
	C1001.090332,730.229187 1000.484009,731.104370 996.784668,731.103149 
	C666.332397,730.991882 335.880066,730.991333 5.427789,731.103943 
	C1.515688,731.105286 0.911984,730.046082 0.914202,726.429016 
	C1.013355,564.786072 1.000000,403.143036 1.000000,241.000000 
z"/>
<path fill="#FEFEFE" opacity="1.000000" stroke="none" 
	d="
M984.078796,237.000031 
	C984.078796,394.148712 984.058350,550.797363 984.182007,707.445984 
	C984.185547,711.926453 983.156250,713.094482 978.581299,713.092773 
	C660.117920,712.972595 341.654541,712.973206 23.191153,713.091187 
	C18.819572,713.092834 17.807419,712.107300 17.809792,707.720764 
	C17.933073,479.913666 17.932383,252.106491 17.813663,24.299370 
	C17.811407,19.967466 18.742832,18.901035 23.166697,18.902731 
	C341.630066,19.024872 660.093445,19.024511 978.556824,18.908649 
	C983.075500,18.907005 984.198486,19.988726 984.188416,24.525436 
	C984.031860,95.183357 984.078796,165.841736 984.078796,237.000031 
z"/>
<path fill="#000000" opacity="1.000000" stroke="none" 
	d="
M677.000000,678.986084 
	C470.358246,678.986084 264.216492,678.970398 58.074783,679.085388 
	C53.395546,679.088013 51.766560,678.447693 51.771095,673.109131 
	C51.945068,468.300690 51.940548,263.492035 51.787815,58.683586 
	C51.784096,53.694561 53.153595,52.902966 57.782120,52.904861 
	C353.246368,53.026001 648.710693,53.031845 944.174927,52.871162 
	C949.449036,52.868294 950.188354,54.399036 950.185608,59.140549 
	C950.064697,263.782410 950.056458,468.424377 950.221985,673.066162 
	C950.226196,678.300598 948.748657,679.103760 943.968079,679.095703 
	C855.145569,678.946228 766.322754,678.986084 677.000000,678.986084 
z"/>
<path fill="#FEFEFE" opacity="1.000000" stroke="none" 
	d="
M627.000000,103.997711 
	C661.658813,104.023209 695.820435,103.789848 729.975525,104.160606 
	C754.844116,104.430565 779.427124,107.213394 803.266785,114.971466 
	C835.525391,125.469315 857.658997,146.442108 868.503479,178.601410 
	C879.697388,211.796753 881.650208,245.880188 874.504150,280.084381 
	C867.266235,314.728210 846.757324,339.908173 815.872925,356.818146 
	C812.963806,358.410950 809.985168,359.876892 806.937988,361.453979 
	C808.189819,363.346527 810.328674,363.343719 812.070129,363.994019 
	C830.790894,370.984314 848.059692,380.405121 862.686157,394.220154 
	C883.297729,413.688293 894.242615,438.045074 897.698975,465.792053 
	C900.901245,491.499084 899.457214,517.055542 891.695557,541.911926 
	C879.741272,580.195435 853.527039,604.063843 815.692078,615.929321 
	C788.098328,624.583130 759.663208,627.626282 730.961304,627.821777 
	C675.143066,628.201965 619.320557,627.931702 563.500305,628.100586 
	C559.671387,628.112122 558.944336,627.077271 558.946350,623.435547 
	C559.043457,451.806946 559.043823,280.178314 558.944336,108.549706 
	C558.942200,104.878510 559.711426,103.857780 563.515808,103.896233 
	C584.508728,104.108406 605.504944,103.997711 627.000000,103.997711 
z"/>
<path fill="#FDFDFD" opacity="1.000000" stroke="none" 
	d="
M236.606308,368.384552 
	C307.167053,454.830811 377.493561,541.007446 447.838837,627.207092 
	C446.713745,628.650269 445.284698,627.960205 444.098541,627.965027 
	C429.601379,628.023865 415.103546,627.949463 400.606842,628.052063 
	C397.932587,628.070923 396.093475,627.441528 394.283234,625.235291 
	C325.294800,541.155273 256.225494,457.141541 187.172989,373.114075 
	C183.050476,368.097565 183.071259,368.076263 178.321823,372.825134 
	C167.480835,383.664795 156.738358,394.605865 145.739334,405.282654 
	C142.767181,408.167725 141.507706,411.024292 141.516251,415.242157 
	C141.656311,484.396118 141.568146,553.550598 141.726898,622.704468 
	C141.737045,627.127869 140.683609,628.299744 136.282990,628.117737 
	C127.133614,627.739380 117.946129,627.730652 108.797508,628.118042 
	C104.189850,628.313110 102.692055,627.407288 102.766121,622.361084 
	C103.098701,599.703369 102.911026,577.038025 102.911026,554.375427 
	C102.911026,406.068726 102.935768,257.761993 102.796249,109.455452 
	C102.791885,104.817238 104.042572,103.722847 108.478149,103.889908 
	C117.796585,104.240875 127.144653,104.210724 136.465744,103.896973 
	C140.513260,103.760727 141.747894,104.669624 141.726700,108.977318 
	C141.536514,147.636093 141.615677,186.296219 141.615677,224.955948 
	C141.615677,267.448303 141.615677,309.940674 141.615677,352.433044 
	C141.615677,354.193298 141.615677,355.953522 141.615677,357.713776 
	C142.083557,358.025299 142.551422,358.336792 143.019302,358.648315 
	C144.188263,357.121094 145.205017,355.443024 146.547928,354.088226 
	C227.959457,271.956726 309.411865,189.865677 390.771454,107.682762 
	C393.455963,104.971077 396.077209,103.867119 399.848053,103.917297 
	C414.472321,104.111916 429.100677,103.996483 444.733154,103.996483 
	C443.018555,105.860504 441.911346,107.148796 440.717041,108.350533 
	C365.776733,183.757950 290.852264,259.181183 215.801651,334.478760 
	C212.686630,337.604004 212.532532,339.328186 215.414978,342.633392 
	C222.640228,350.918335 229.416031,359.595245 236.606308,368.384552 
z"/>
<path fill="#000000" opacity="1.000000" stroke="none" 
	d="
M831.647827,563.659668 
	C815.242798,578.300110 795.475464,584.249939 774.804016,587.935242 
	C758.207031,590.894165 741.429077,591.983032 724.582825,591.991394 
	C683.935181,592.011719 643.287415,591.942322 602.640259,592.088806 
	C598.792664,592.102661 597.747925,591.211975 597.755981,587.260376 
	C597.890686,520.958313 597.889587,454.655914 597.760071,388.353851 
	C597.752197,384.341217 598.527954,383.056396 602.829407,383.077484 
	C643.975464,383.279114 685.125305,382.962921 726.268921,383.345917 
	C753.676025,383.601013 780.721191,386.622314 806.235046,397.817017 
	C838.064819,411.782959 854.523010,436.624207 858.094543,470.679626 
	C860.147644,490.256470 859.067871,509.563965 853.218628,528.468933 
	C849.059570,541.911438 842.145142,553.679626 831.647827,563.659668 
z"/>
<path fill="#000000" opacity="1.000000" stroke="none" 
	d="
M706.000000,140.002396 
	C727.499695,139.808136 748.486877,139.885605 769.209839,143.974274 
	C780.674683,146.236298 791.744263,149.671661 801.953613,155.526917 
	C817.976196,164.716171 828.008789,178.569138 832.765442,196.167557 
	C839.519714,221.156479 840.220642,246.559418 835.519043,271.905426 
	C828.154053,311.609802 803.189270,334.238647 764.548218,342.967194 
	C750.344360,346.175690 735.938721,347.265594 721.411133,347.255280 
	C681.757751,347.227081 642.104126,347.195953 602.451233,347.330536 
	C598.843140,347.342773 597.745300,346.647522 597.753357,342.780548 
	C597.891846,276.636322 597.899048,210.491577 597.740662,144.347427 
	C597.730896,140.274887 599.142639,139.922729 602.534607,139.933838 
	C636.856140,140.046234 671.178101,140.002396 706.000000,140.002396 
z"/>
</svg>