<svg version="1.1" id="Layer_1" xmlns="http://www.w3.org/2000/svg" xmlns:xlink="http://www.w3.org/1999/xlink" x="0px" y="0px"
	 width="100%" viewBox="0 0 1000 1000" enable-background="new 0 0 1000 1000" xml:space="preserve">
<path fill="#000000" opacity="1.000000" stroke="none" 
	d="
M459.000000,1001.000000 
	C306.000000,1001.000000 153.500000,1001.000000 1.000000,1001.000000 
	C1.000000,667.666687 1.000000,334.333344 1.000000,1.000000 
	C334.333344,1.000000 667.666687,1.000000 1001.000000,1.000000 
	C1001.000000,334.333344 1001.000000,667.666687 1001.000000,1001.000000 
	C820.500000,1001.000000 640.000000,1001.000000 459.000000,1001.000000 
M613.773682,707.232239 
	C609.689758,707.815369 605.621521,708.738525 601.519470,708.926941 
	C573.292725,710.223145 545.531433,707.674805 518.654358,698.336609 
	C486.242462,687.075317 457.980011,669.247070 434.768707,643.956421 
	C429.345032,638.046814 423.735901,637.222778 416.657623,638.394348 
	C469.407532,705.196411 563.773132,738.281555 654.196167,708.004272 
	C699.145264,692.953430 735.930542,666.289551 763.395020,627.635925 
	C794.084961,584.442749 807.239929,536.190918 803.116211,483.160461 
	C796.707764,400.747589 739.993958,317.190735 642.763428,290.549133 
	C557.246582,267.117188 467.926239,298.256592 416.574860,363.774384 
	C421.643219,366.167633 427.022522,365.603882 430.491852,361.970428 
	C446.154358,345.566864 463.197662,331.021454 483.115356,319.820068 
	C510.843811,304.225983 540.555664,295.465424 572.102173,293.196747 
	C592.858215,291.704132 613.578064,293.509033 633.806641,298.510132 
	C673.477966,308.318085 707.739075,327.551788 736.067505,357.390839 
	C752.826416,375.043549 766.323608,394.644073 776.014282,416.920654 
	C789.661377,448.291992 795.735413,480.879120 793.200439,515.190369 
	C792.116089,529.866211 789.970093,544.222839 785.939636,558.286194 
	C774.490173,598.236938 752.794800,631.765869 721.414551,658.891907 
	C704.903137,673.164917 686.476990,684.603760 666.214294,692.892456 
	C649.603943,699.687134 632.550293,704.945007 613.773682,707.232239 
M346.404938,488.922760 
	C342.768768,492.052124 339.132599,495.181488 333.877838,499.703888 
	C335.982666,500.918732 337.885590,501.553040 339.158630,502.820129 
	C365.964417,529.500793 392.670013,556.282166 419.496704,582.941650 
	C421.939972,585.369690 423.015106,587.788635 422.881531,591.234680 
	C422.625824,597.831299 422.807159,604.444824 422.807159,611.086304 
	C442.816681,611.086304 462.273193,611.086304 481.821503,611.086304 
	C481.821503,602.826904 481.821503,594.741943 481.821503,586.242981 
	C478.447601,586.242981 475.263824,585.870178 472.197357,586.311890 
	C462.515900,587.706604 455.652374,584.037964 448.761810,577.021301 
	C422.385132,550.161987 395.307404,523.991211 368.298279,497.373077 
	C369.352417,496.375153 370.257904,495.427673 371.254211,494.587982 
	C398.762268,471.404816 426.504395,448.491302 453.651337,424.893036 
	C461.294525,418.248962 468.872833,414.232330 479.003143,415.848053 
	C479.908630,415.992462 480.886658,415.682037 481.834595,415.582489 
	C481.834595,407.203430 481.834595,399.116272 481.834595,390.991211 
	C464.983154,390.991211 448.377838,390.991211 431.382568,390.991211 
	C431.382568,397.698944 431.205139,404.168610 431.452087,410.622070 
	C431.590363,414.235077 430.590576,416.692810 427.710388,419.144684 
	C400.695374,442.141724 373.838013,465.323975 346.404938,488.922760 
M296.536194,611.261475 
	C316.608673,611.261475 336.681183,611.261475 356.551086,611.261475 
	C356.551086,602.553040 356.551086,594.493958 356.551086,586.161987 
	C349.216400,586.161987 342.272308,586.161987 335.228760,586.161987 
	C335.228760,529.349182 335.228760,472.826508 335.228760,415.773804 
	C342.481140,415.773804 349.705536,415.773804 356.843933,415.773804 
	C356.843933,407.160767 356.843933,399.080597 356.843933,391.037170 
	C332.986359,391.037170 309.413361,391.037170 285.880859,391.037170 
	C285.880859,399.441742 285.880859,407.544586 285.880859,416.052399 
	C292.747528,416.052399 299.337463,416.052399 305.844116,416.052399 
	C305.844116,472.990784 305.844116,529.516724 305.844116,586.552185 
	C298.797607,586.552185 292.066132,586.552185 285.400635,586.552185 
	C285.400635,595.000977 285.400635,602.936707 285.400635,611.261475 
	C288.933899,611.261475 292.243317,611.261475 296.536194,611.261475 
M581.500000,569.980896 
	C623.656433,569.980896 665.812866,569.986145 707.969299,569.975464 
	C714.588135,569.973755 716.818359,567.889648 716.823120,561.473877 
	C716.852905,521.150391 716.852478,480.826843 716.823303,440.503326 
	C716.818726,434.233459 714.611816,432.030823 708.454590,432.028961 
	C653.134705,432.012268 597.814880,432.012115 542.494995,432.029144 
	C536.344788,432.031036 534.158630,434.234802 534.154541,440.517426 
	C534.128296,480.840942 534.127258,521.164429 534.155334,561.487976 
	C534.159851,567.915344 536.361877,569.965637 543.009094,569.975525 
	C555.506042,569.994080 568.003052,569.980896 581.500000,569.980896 
z"/>
<path fill="#364050" opacity="1.000000" stroke="none" 
	d="
M614.211487,707.159546 
	C632.550293,704.945007 649.603943,699.687134 666.214294,692.892456 
	C686.476990,684.603760 704.903137,673.164917 721.414551,658.891907 
	C752.794800,631.765869 774.490173,598.236938 785.939636,558.286194 
	C789.970093,544.222839 792.116089,529.866211 793.200439,515.190369 
	C795.735413,480.879120 789.661377,448.291992 776.014282,416.920654 
	C766.323608,394.644073 752.826416,375.043549 736.067505,357.390839 
	C707.739075,327.551788 673.477966,308.318085 633.806641,298.510132 
	C613.578064,293.509033 592.858215,291.704132 572.102173,293.196747 
	C540.555664,295.465424 510.843811,304.225983 483.115356,319.820068 
	C463.197662,331.021454 446.154358,345.566864 430.491852,361.970428 
	C427.022522,365.603882 421.643219,366.167633 416.574860,363.774384 
	C467.926239,298.256592 557.246582,267.117188 642.763428,290.549133 
	C739.993958,317.190735 796.707764,400.747589 803.116211,483.160461 
	C807.239929,536.190918 794.084961,584.442749 763.395020,627.635925 
	C735.930542,666.289551 699.145264,692.953430 654.196167,708.004272 
	C563.773132,738.281555 469.407532,705.196411 416.657623,638.394348 
	C423.735901,637.222778 429.345032,638.046814 434.768707,643.956421 
	C457.980011,669.247070 486.242462,687.075317 518.654358,698.336609 
	C545.531433,707.674805 573.292725,710.223145 601.519470,708.926941 
	C605.621521,708.738525 609.689758,707.815369 614.211487,707.159546 
z"/>
<path fill="#FDFDFD" opacity="1.000000" stroke="none" 
	d="
M346.670013,488.687744 
	C373.838013,465.323975 400.695374,442.141724 427.710388,419.144684 
	C430.590576,416.692810 431.590363,414.235077 431.452087,410.622070 
	C431.205139,404.168610 431.382568,397.698944 431.382568,390.991211 
	C448.377838,390.991211 464.983154,390.991211 481.834595,390.991211 
	C481.834595,399.116272 481.834595,407.203430 481.834595,415.582489 
	C480.886658,415.682037 479.908630,415.992462 479.003143,415.848053 
	C468.872833,414.232330 461.294525,418.248962 453.651337,424.893036 
	C426.504395,448.491302 398.762268,471.404816 371.254211,494.587982 
	C370.257904,495.427673 369.352417,496.375153 368.298279,497.373077 
	C395.307404,523.991211 422.385132,550.161987 448.761810,577.021301 
	C455.652374,584.037964 462.515900,587.706604 472.197357,586.311890 
	C475.263824,585.870178 478.447601,586.242981 481.821503,586.242981 
	C481.821503,594.741943 481.821503,602.826904 481.821503,611.086304 
	C462.273193,611.086304 442.816681,611.086304 422.807159,611.086304 
	C422.807159,604.444824 422.625824,597.831299 422.881531,591.234680 
	C423.015106,587.788635 421.939972,585.369690 419.496704,582.941650 
	C392.670013,556.282166 365.964417,529.500793 339.158630,502.820129 
	C337.885590,501.553040 335.982666,500.918732 333.877838,499.703888 
	C339.132599,495.181488 342.768768,492.052124 346.670013,488.687744 
z"/>
<path fill="#FCFCFC" opacity="1.000000" stroke="none" 
	d="
M296.044464,611.261475 
	C292.243317,611.261475 288.933899,611.261475 285.400635,611.261475 
	C285.400635,602.936707 285.400635,595.000977 285.400635,586.552185 
	C292.066132,586.552185 298.797607,586.552185 305.844116,586.552185 
	C305.844116,529.516724 305.844116,472.990784 305.844116,416.052399 
	C299.337463,416.052399 292.747528,416.052399 285.880859,416.052399 
	C285.880859,407.544586 285.880859,399.441742 285.880859,391.037170 
	C309.413361,391.037170 332.986359,391.037170 356.843933,391.037170 
	C356.843933,399.080597 356.843933,407.160767 356.843933,415.773804 
	C349.705536,415.773804 342.481140,415.773804 335.228760,415.773804 
	C335.228760,472.826508 335.228760,529.349182 335.228760,586.161987 
	C342.272308,586.161987 349.216400,586.161987 356.551086,586.161987 
	C356.551086,594.493958 356.551086,602.553040 356.551086,611.261475 
	C336.681183,611.261475 316.608673,611.261475 296.044464,611.261475 
z"/>
<path fill="#F7F7F7" opacity="1.000000" stroke="none" 
	d="
M581.000000,569.980896 
	C568.003052,569.980896 555.506042,569.994080 543.009094,569.975525 
	C536.361877,569.965637 534.159851,567.915344 534.155334,561.487976 
	C534.127258,521.164429 534.128296,480.840942 534.154541,440.517426 
	C534.158630,434.234802 536.344788,432.031036 542.494995,432.029144 
	C597.814880,432.012115 653.134705,432.012268 708.454590,432.028961 
	C714.611816,432.030823 716.818726,434.233459 716.823303,440.503326 
	C716.852478,480.826843 716.852905,521.150391 716.823120,561.473877 
	C716.818359,567.889648 714.588135,569.973755 707.969299,569.975464 
	C665.812866,569.986145 623.656433,569.980896 581.000000,569.980896 
M643.499756,561.413879 
	C664.926575,561.413879 686.353333,561.413879 707.890991,561.413879 
	C707.890991,525.814392 707.890991,490.733490 707.890991,455.518555 
	C652.870361,455.518555 598.107056,455.518555 543.186768,455.518555 
	C543.186768,490.883423 543.186768,526.083740 543.186768,561.413940 
	C576.528259,561.413940 609.513977,561.413940 643.499756,561.413879 
M575.554016,438.042786 
	C572.178894,438.600342 570.208374,440.660919 571.407715,443.887512 
	C571.952148,445.352356 574.518860,446.704071 576.274719,446.853088 
	C577.423401,446.950500 579.981384,444.479462 579.781494,443.714508 
	C579.249634,441.678925 577.566406,439.944183 575.554016,438.042786 
M546.731628,445.604950 
	C549.551941,447.922333 552.561951,448.085938 553.955078,444.562775 
	C554.562195,443.027588 553.020081,440.274353 551.772888,438.573883 
	C551.336548,437.978973 548.043518,438.356812 547.491272,439.214844 
	C546.495117,440.762512 546.581116,443.006653 546.731628,445.604950 
M566.803406,444.987213 
	C566.450867,443.035034 566.553040,440.793762 565.567566,439.244110 
	C565.016968,438.378326 561.727783,437.970734 561.294312,438.556549 
	C560.037476,440.255188 558.472534,442.996857 559.069458,444.539459 
	C560.438904,448.078552 563.455078,447.910980 566.803406,444.987213 
z"/>
<path fill="#020202" opacity="1.000000" stroke="none" 
	d="
M642.999756,561.413940 
	C609.513977,561.413940 576.528259,561.413940 543.186768,561.413940 
	C543.186768,526.083740 543.186768,490.883423 543.186768,455.518555 
	C598.107056,455.518555 652.870361,455.518555 707.890991,455.518555 
	C707.890991,490.733490 707.890991,525.814392 707.890991,561.413879 
	C686.353333,561.413879 664.926575,561.413879 642.999756,561.413940 
M674.795471,498.745850 
	C668.816284,495.899506 662.947021,492.768127 656.786255,490.392853 
	C655.093933,489.740387 652.529724,491.349182 650.365601,491.920349 
	C651.266174,493.955780 651.928223,496.154724 653.165222,497.959564 
	C653.810608,498.901215 655.462280,499.162415 656.669922,499.707825 
	C661.857788,502.050842 667.049500,504.385345 673.034058,507.080627 
	C665.742065,510.359985 659.295349,512.941345 653.219360,516.211487 
	C651.668701,517.046021 651.292603,520.062866 650.376831,522.076965 
	C652.208252,522.751953 654.494507,524.487854 655.797119,523.929382 
	C664.155884,520.345947 672.437561,516.518555 680.456909,512.233154 
	C684.735168,509.946899 684.434937,504.303375 680.332031,501.551270 
	C678.829712,500.543549 677.112366,499.856476 674.795471,498.745850 
M594.271606,513.272156 
	C589.858704,511.292603 585.445740,509.313049 580.100525,506.915283 
	C587.564087,503.557007 594.006653,500.948700 600.109863,497.702484 
	C601.588257,496.916138 601.947266,494.025360 602.821045,492.102325 
	C600.874634,491.383545 598.453674,489.541687 597.059937,490.130676 
	C588.828918,493.609039 580.705933,497.406677 572.815430,501.602386 
	C568.437317,503.930389 568.325928,509.906891 572.661865,512.235413 
	C580.676086,516.539307 588.971741,520.353760 597.339844,523.927979 
	C598.638245,524.482483 601.966003,523.117859 602.501953,521.854492 
	C603.074768,520.504028 601.925537,517.758972 600.662720,516.471130 
	C599.256775,515.037354 596.875427,514.560059 594.271606,513.272156 
M631.772888,487.179993 
	C624.581177,502.149689 617.388794,517.119080 610.198120,532.089294 
	C608.918762,534.752869 607.635315,537.606689 611.307068,539.297241 
	C615.086548,541.037415 616.207703,537.874023 617.431458,535.338440 
	C621.835144,526.213989 626.197754,517.069702 630.568481,507.929291 
	C634.508911,499.688721 638.610596,491.517212 642.222839,483.134949 
	C642.904541,481.552979 642.320496,478.235291 641.097412,477.272675 
	C638.619568,475.322510 636.495483,477.161499 635.251709,479.728821 
	C634.165710,481.970428 633.109924,484.226654 631.772888,487.179993 
z"/>
<path fill="#0C0C0C" opacity="1.000000" stroke="none" 
	d="
M575.947510,438.066284 
	C577.566406,439.944183 579.249634,441.678925 579.781494,443.714508 
	C579.981384,444.479462 577.423401,446.950500 576.274719,446.853088 
	C574.518860,446.704071 571.952148,445.352356 571.407715,443.887512 
	C570.208374,440.660919 572.178894,438.600342 575.947510,438.066284 
z"/>
<path fill="#0C0C0C" opacity="1.000000" stroke="none" 
	d="
M546.473389,445.282440 
	C546.581116,443.006653 546.495117,440.762512 547.491272,439.214844 
	C548.043518,438.356812 551.336548,437.978973 551.772888,438.573883 
	C553.020081,440.274353 554.562195,443.027588 553.955078,444.562775 
	C552.561951,448.085938 549.551941,447.922333 546.473389,445.282440 
z"/>
<path fill="#0C0C0C" opacity="1.000000" stroke="none" 
	d="
M566.546509,445.308533 
	C563.455078,447.910980 560.438904,448.078552 559.069458,444.539459 
	C558.472534,442.996857 560.037476,440.255188 561.294312,438.556549 
	C561.727783,437.970734 565.016968,438.378326 565.567566,439.244110 
	C566.553040,440.793762 566.450867,443.035034 566.546509,445.308533 
z"/>
<path fill="#F7F7F7" opacity="1.000000" stroke="none" 
	d="
M675.144287,498.884491 
	C677.112366,499.856476 678.829712,500.543549 680.332031,501.551270 
	C684.434937,504.303375 684.735168,509.946899 680.456909,512.233154 
	C672.437561,516.518555 664.155884,520.345947 655.797119,523.929382 
	C654.494507,524.487854 652.208252,522.751953 650.376831,522.076965 
	C651.292603,520.062866 651.668701,517.046021 653.219360,516.211487 
	C659.295349,512.941345 665.742065,510.359985 673.034058,507.080627 
	C667.049500,504.385345 661.857788,502.050842 656.669922,499.707825 
	C655.462280,499.162415 653.810608,498.901215 653.165222,497.959564 
	C651.928223,496.154724 651.266174,493.955780 650.365601,491.920349 
	C652.529724,491.349182 655.093933,489.740387 656.786255,490.392853 
	C662.947021,492.768127 668.816284,495.899506 675.144287,498.884491 
z"/>
<path fill="#F7F7F7" opacity="1.000000" stroke="none" 
	d="
M594.595154,513.469238 
	C596.875427,514.560059 599.256775,515.037354 600.662720,516.471130 
	C601.925537,517.758972 603.074768,520.504028 602.501953,521.854492 
	C601.966003,523.117859 598.638245,524.482483 597.339844,523.927979 
	C588.971741,520.353760 580.676086,516.539307 572.661865,512.235413 
	C568.325928,509.906891 568.437317,503.930389 572.815430,501.602386 
	C580.705933,497.406677 588.828918,493.609039 597.059937,490.130676 
	C598.453674,489.541687 600.874634,491.383545 602.821045,492.102325 
	C601.947266,494.025360 601.588257,496.916138 600.109863,497.702484 
	C594.006653,500.948700 587.564087,503.557007 580.100525,506.915283 
	C585.445740,509.313049 589.858704,511.292603 594.595154,513.469238 
z"/>
<path fill="#F7F7F7" opacity="1.000000" stroke="none" 
	d="
M631.906860,486.828247 
	C633.109924,484.226654 634.165710,481.970428 635.251709,479.728821 
	C636.495483,477.161499 638.619568,475.322510 641.097412,477.272675 
	C642.320496,478.235291 642.904541,481.552979 642.222839,483.134949 
	C638.610596,491.517212 634.508911,499.688721 630.568481,507.929291 
	C626.197754,517.069702 621.835144,526.213989 617.431458,535.338440 
	C616.207703,537.874023 615.086548,541.037415 611.307068,539.297241 
	C607.635315,537.606689 608.918762,534.752869 610.198120,532.089294 
	C617.388794,517.119080 624.581177,502.149689 631.906860,486.828247 
z"/>
</svg>